# Blender 4.5.3 LTS
# www.blender.org
mtllib LiensoCircular.mtl
o Cylinder.005
v 0.000000 0.721643 -0.040926
v 0.000000 0.688678 0.040926
v 0.140785 0.707776 -0.040926
v 0.134354 0.675445 0.040926
v 0.276161 0.666711 -0.040926
v 0.263546 0.636255 0.040926
v 0.400923 0.600024 -0.040926
v 0.382609 0.572615 0.040926
v 0.510278 0.510278 -0.040926
v 0.486969 0.486969 0.040926
v 0.600024 0.400923 -0.040926
v 0.572615 0.382609 0.040926
v 0.666711 0.276161 -0.040926
v 0.636255 0.263546 0.040926
v 0.707776 0.140785 -0.040926
v 0.675445 0.134354 0.040926
v 0.721643 0.000000 -0.040926
v 0.688678 -0.000000 0.040926
v 0.707776 -0.140785 -0.040926
v 0.675445 -0.134354 0.040926
v 0.666711 -0.276161 -0.040926
v 0.636255 -0.263546 0.040926
v 0.600024 -0.400923 -0.040926
v 0.572615 -0.382609 0.040926
v 0.510278 -0.510278 -0.040926
v 0.486969 -0.486969 0.040926
v 0.400923 -0.600024 -0.040926
v 0.382609 -0.572615 0.040926
v 0.276161 -0.666711 -0.040926
v 0.263546 -0.636255 0.040926
v 0.140785 -0.707776 -0.040926
v 0.134354 -0.675445 0.040926
v 0.000000 -0.721643 -0.040926
v 0.000000 -0.688678 0.040926
v -0.140785 -0.707776 -0.040926
v -0.134354 -0.675445 0.040926
v -0.276161 -0.666711 -0.040926
v -0.263546 -0.636255 0.040926
v -0.400923 -0.600024 -0.040926
v -0.382609 -0.572615 0.040926
v -0.510278 -0.510278 -0.040926
v -0.486969 -0.486969 0.040926
v -0.600024 -0.400923 -0.040926
v -0.572615 -0.382609 0.040926
v -0.666711 -0.276161 -0.040926
v -0.636255 -0.263546 0.040926
v -0.707776 -0.140785 -0.040926
v -0.675445 -0.134354 0.040926
v -0.721643 0.000000 -0.040926
v -0.688678 -0.000000 0.040926
v -0.707776 0.140785 -0.040926
v -0.675445 0.134354 0.040926
v -0.666711 0.276161 -0.040926
v -0.636255 0.263546 0.040926
v -0.600024 0.400923 -0.040926
v -0.572615 0.382609 0.040926
v -0.510278 0.510278 -0.040926
v -0.486969 0.486969 0.040926
v -0.400923 0.600024 -0.040926
v -0.382609 0.572615 0.040926
v -0.276161 0.666711 -0.040926
v -0.263546 0.636255 0.040926
v -0.140785 0.707776 -0.040926
v -0.134354 0.675445 0.040926
v 0.140785 0.707776 0.040926
v 0.000000 0.721643 0.040926
v 0.276161 0.666711 0.040926
v 0.400923 0.600024 0.040926
v 0.510278 0.510278 0.040926
v 0.600024 0.400923 0.040926
v 0.666711 0.276161 0.040926
v 0.707776 0.140785 0.040926
v 0.721643 -0.000000 0.040926
v 0.707776 -0.140785 0.040926
v 0.666711 -0.276161 0.040926
v 0.600024 -0.400923 0.040926
v 0.510278 -0.510278 0.040926
v 0.400923 -0.600024 0.040926
v 0.276161 -0.666711 0.040926
v 0.140785 -0.707776 0.040926
v 0.000000 -0.721643 0.040926
v -0.140785 -0.707776 0.040926
v -0.276161 -0.666711 0.040926
v -0.400923 -0.600024 0.040926
v -0.510278 -0.510278 0.040926
v -0.600024 -0.400923 0.040926
v -0.666711 -0.276161 0.040926
v -0.707776 -0.140785 0.040926
v -0.721643 -0.000000 0.040926
v -0.707776 0.140785 0.040926
v -0.666711 0.276161 0.040926
v -0.600024 0.400923 0.040926
v -0.510278 0.510278 0.040926
v -0.400923 0.600024 0.040926
v -0.276161 0.666711 0.040926
v -0.140785 0.707776 0.040926
v 0.134354 0.675445 0.013082
v -0.000000 0.688678 0.013082
v 0.263546 0.636255 0.013082
v 0.382609 0.572615 0.013082
v 0.486969 0.486969 0.013082
v 0.572615 0.382609 0.013082
v 0.636255 0.263546 0.013082
v 0.675445 0.134354 0.013082
v 0.688678 -0.000000 0.013082
v 0.675445 -0.134354 0.013082
v 0.636255 -0.263546 0.013082
v 0.572615 -0.382609 0.013082
v 0.486969 -0.486969 0.013082
v 0.382609 -0.572615 0.013082
v 0.263546 -0.636255 0.013082
v 0.134354 -0.675445 0.013082
v -0.000000 -0.688678 0.013082
v -0.134354 -0.675445 0.013082
v -0.263546 -0.636255 0.013082
v -0.382609 -0.572615 0.013082
v -0.486969 -0.486969 0.013082
v -0.572615 -0.382609 0.013082
v -0.636255 -0.263546 0.013082
v -0.675445 -0.134354 0.013082
v -0.688678 -0.000000 0.013082
v -0.675445 0.134354 0.013082
v -0.636255 0.263546 0.013082
v -0.572615 0.382609 0.013082
v -0.486969 0.486969 0.013082
v -0.382609 0.572615 0.013082
v -0.263546 0.636255 0.013082
v -0.134354 0.675445 0.013082
vn 0.0980 0.9952 -0.0000
vn 0.2903 0.9569 -0.0000
vn 0.4714 0.8819 -0.0000
vn 0.6344 0.7730 -0.0000
vn 0.7730 0.6344 -0.0000
vn 0.8819 0.4714 -0.0000
vn 0.9569 0.2903 -0.0000
vn 0.9952 0.0980 -0.0000
vn 0.9952 -0.0980 -0.0000
vn 0.9569 -0.2903 -0.0000
vn 0.8819 -0.4714 -0.0000
vn 0.7730 -0.6344 -0.0000
vn 0.6344 -0.7730 -0.0000
vn 0.4714 -0.8819 -0.0000
vn 0.2903 -0.9569 -0.0000
vn 0.0980 -0.9952 -0.0000
vn -0.0980 -0.9952 -0.0000
vn -0.2903 -0.9569 -0.0000
vn -0.4714 -0.8819 -0.0000
vn -0.6344 -0.7730 -0.0000
vn -0.7730 -0.6344 -0.0000
vn -0.8819 -0.4714 -0.0000
vn -0.9569 -0.2903 -0.0000
vn -0.9952 -0.0980 -0.0000
vn -0.9952 0.0980 -0.0000
vn -0.9569 0.2903 -0.0000
vn -0.8819 0.4714 -0.0000
vn -0.7730 0.6344 -0.0000
vn -0.6344 0.7730 -0.0000
vn -0.4714 0.8819 -0.0000
vn -0.2903 0.9569 -0.0000
vn -0.0980 0.9952 -0.0000
vn -0.0000 -0.0000 -1.0000
vn -0.0000 -0.0000 1.0000
vt 1.000000 0.500000
vt 1.000000 1.000000
vt 0.968750 1.000000
vt 0.968750 0.500000
vt 0.937500 1.000000
vt 0.937500 0.500000
vt 0.906250 1.000000
vt 0.906250 0.500000
vt 0.875000 1.000000
vt 0.875000 0.500000
vt 0.843750 1.000000
vt 0.843750 0.500000
vt 0.812500 1.000000
vt 0.812500 0.500000
vt 0.781250 1.000000
vt 0.781250 0.500000
vt 0.750000 1.000000
vt 0.750000 0.500000
vt 0.718750 1.000000
vt 0.718750 0.500000
vt 0.687500 1.000000
vt 0.687500 0.500000
vt 0.656250 1.000000
vt 0.656250 0.500000
vt 0.625000 1.000000
vt 0.625000 0.500000
vt 0.593750 1.000000
vt 0.593750 0.500000
vt 0.562500 1.000000
vt 0.562500 0.500000
vt 0.531250 1.000000
vt 0.531250 0.500000
vt 0.500000 1.000000
vt 0.500000 0.500000
vt 0.468750 1.000000
vt 0.468750 0.500000
vt 0.437500 1.000000
vt 0.437500 0.500000
vt 0.406250 1.000000
vt 0.406250 0.500000
vt 0.375000 1.000000
vt 0.375000 0.500000
vt 0.343750 1.000000
vt 0.343750 0.500000
vt 0.312500 1.000000
vt 0.312500 0.500000
vt 0.281250 1.000000
vt 0.281250 0.500000
vt 0.250000 1.000000
vt 0.250000 0.500000
vt 0.218750 1.000000
vt 0.218750 0.500000
vt 0.187500 1.000000
vt 0.187500 0.500000
vt 0.156250 1.000000
vt 0.156250 0.500000
vt 0.125000 1.000000
vt 0.125000 0.500000
vt 0.093750 1.000000
vt 0.093750 0.500000
vt 0.062500 1.000000
vt 0.062500 0.500000
vt 0.294683 0.474636
vt 0.250000 0.479036
vt 0.031250 1.000000
vt 0.031250 0.500000
vt 0.000000 1.000000
vt 0.000000 0.500000
vt 0.750000 0.490000
vt 0.796822 0.485388
vt 0.841844 0.471731
vt 0.883337 0.449553
vt 0.919706 0.419706
vt 0.949553 0.383337
vt 0.971731 0.341844
vt 0.985388 0.296822
vt 0.990000 0.250000
vt 0.985388 0.203178
vt 0.971731 0.158156
vt 0.949553 0.116663
vt 0.919706 0.080294
vt 0.883337 0.050447
vt 0.841844 0.028269
vt 0.796822 0.014612
vt 0.750000 0.010000
vt 0.703178 0.014612
vt 0.658156 0.028269
vt 0.616663 0.050447
vt 0.580294 0.080294
vt 0.550447 0.116663
vt 0.528269 0.158156
vt 0.514612 0.203178
vt 0.510000 0.250000
vt 0.514612 0.296822
vt 0.528269 0.341844
vt 0.550447 0.383337
vt 0.580294 0.419706
vt 0.616663 0.449553
vt 0.658156 0.471731
vt 0.703178 0.485388
vt 0.296822 0.485388
vt 0.250000 0.490000
vt 0.337648 0.461602
vt 0.341844 0.471731
vt 0.377246 0.440437
vt 0.383337 0.449553
vt 0.411953 0.411953
vt 0.419706 0.419706
vt 0.440437 0.377246
vt 0.449553 0.383337
vt 0.461602 0.337649
vt 0.471731 0.341844
vt 0.474636 0.294683
vt 0.485388 0.296822
vt 0.479037 0.250000
vt 0.490000 0.250000
vt 0.474636 0.205317
vt 0.485388 0.203178
vt 0.461602 0.162351
vt 0.471731 0.158156
vt 0.440437 0.122754
vt 0.449553 0.116663
vt 0.411953 0.088047
vt 0.419706 0.080294
vt 0.377246 0.059563
vt 0.383337 0.050447
vt 0.337649 0.038398
vt 0.341844 0.028269
vt 0.294683 0.025364
vt 0.296822 0.014612
vt 0.250000 0.020963
vt 0.250000 0.010000
vt 0.205317 0.025364
vt 0.203178 0.014612
vt 0.162351 0.038398
vt 0.158156 0.028269
vt 0.122754 0.059563
vt 0.116663 0.050447
vt 0.088047 0.088047
vt 0.080294 0.080294
vt 0.059563 0.122754
vt 0.050447 0.116663
vt 0.038398 0.162351
vt 0.028269 0.158156
vt 0.025364 0.205317
vt 0.014612 0.203178
vt 0.020963 0.250000
vt 0.010000 0.250000
vt 0.025364 0.294683
vt 0.014612 0.296822
vt 0.038398 0.337648
vt 0.028269 0.341844
vt 0.059563 0.377246
vt 0.050447 0.383337
vt 0.088047 0.411953
vt 0.080294 0.419706
vt 0.122754 0.440437
vt 0.116663 0.449553
vt 0.162351 0.461602
vt 0.158156 0.471731
vt 0.205317 0.474636
vt 0.203178 0.485388
vt 0.587552 0.983301
vt 0.492927 0.992621
vt 0.398301 0.983301
vt 0.307312 0.955700
vt 0.223456 0.910878
vt 0.149955 0.850558
vt 0.089635 0.777057
vt 0.044813 0.693201
vt 0.017212 0.602212
vt 0.007892 0.507586
vt 0.017212 0.412960
vt 0.044813 0.321971
vt 0.089635 0.238115
vt 0.149955 0.164615
vt 0.223456 0.104295
vt 0.307312 0.059473
vt 0.398301 0.031871
vt 0.492927 0.022551
vt 0.587552 0.031871
vt 0.678542 0.059473
vt 0.762398 0.104295
vt 0.835898 0.164615
vt 0.896218 0.238115
vt 0.941041 0.321971
vt 0.968642 0.412961
vt 0.977962 0.507586
vt 0.968642 0.602212
vt 0.941041 0.693201
vt 0.896218 0.777057
vt 0.835898 0.850558
vt 0.762398 0.910878
vt 0.678541 0.955700
s 0
usemtl PinturaCircular
f 97/163/34 98/164/34 128/165/34 127/166/34 126/167/34 125/168/34 124/169/34 123/170/34 122/171/34 121/172/34 120/173/34 119/174/34 118/175/34 117/176/34 116/177/34 115/178/34 114/179/34 113/180/34 112/181/34 111/182/34 110/183/34 109/184/34 108/185/34 107/186/34 106/187/34 105/188/34 104/189/34 103/190/34 102/191/34 101/192/34 100/193/34 99/194/34
usemtl BaseBlanca
f 1/1/1 66/2/1 65/3/1 3/4/1
f 3/4/2 65/3/2 67/5/2 5/6/2
f 5/6/3 67/5/3 68/7/3 7/8/3
f 7/8/4 68/7/4 69/9/4 9/10/4
f 9/10/5 69/9/5 70/11/5 11/12/5
f 11/12/6 70/11/6 71/13/6 13/14/6
f 13/14/7 71/13/7 72/15/7 15/16/7
f 15/16/8 72/15/8 73/17/8 17/18/8
f 17/18/9 73/17/9 74/19/9 19/20/9
f 19/20/10 74/19/10 75/21/10 21/22/10
f 21/22/11 75/21/11 76/23/11 23/24/11
f 23/24/12 76/23/12 77/25/12 25/26/12
f 25/26/13 77/25/13 78/27/13 27/28/13
f 27/28/14 78/27/14 79/29/14 29/30/14
f 29/30/15 79/29/15 80/31/15 31/32/15
f 31/32/16 80/31/16 81/33/16 33/34/16
f 33/34/17 81/33/17 82/35/17 35/36/17
f 35/36/18 82/35/18 83/37/18 37/38/18
f 37/38/19 83/37/19 84/39/19 39/40/19
f 39/40/20 84/39/20 85/41/20 41/42/20
f 41/42/21 85/41/21 86/43/21 43/44/21
f 43/44/22 86/43/22 87/45/22 45/46/22
f 45/46/23 87/45/23 88/47/23 47/48/23
f 47/48/24 88/47/24 89/49/24 49/50/24
f 49/50/25 89/49/25 90/51/25 51/52/25
f 51/52/26 90/51/26 91/53/26 53/54/26
f 53/54/27 91/53/27 92/55/27 55/56/27
f 55/56/28 92/55/28 93/57/28 57/58/28
f 57/58/29 93/57/29 94/59/29 59/60/29
f 59/60/30 94/59/30 95/61/30 61/62/30
f 4/63/17 2/64/17 98/64/17 97/63/17
f 61/62/31 95/61/31 96/65/31 63/66/31
f 63/66/32 96/65/32 66/67/32 1/68/32
f 1/69/33 3/70/33 5/71/33 7/72/33 9/73/33 11/74/33 13/75/33 15/76/33 17/77/33 19/78/33 21/79/33 23/80/33 25/81/33 27/82/33 29/83/33 31/84/33 33/85/33 35/86/33 37/87/33 39/88/33 41/89/33 43/90/33 45/91/33 47/92/33 49/93/33 51/94/33 53/95/33 55/96/33 57/97/33 59/98/33 61/99/33 63/100/33
f 2/64/34 4/63/34 65/101/34 66/102/34
f 4/63/34 6/103/34 67/104/34 65/101/34
f 6/103/34 8/105/34 68/106/34 67/104/34
f 8/105/34 10/107/34 69/108/34 68/106/34
f 10/107/34 12/109/34 70/110/34 69/108/34
f 12/109/34 14/111/34 71/112/34 70/110/34
f 14/111/34 16/113/34 72/114/34 71/112/34
f 16/113/34 18/115/34 73/116/34 72/114/34
f 18/115/34 20/117/34 74/118/34 73/116/34
f 20/117/34 22/119/34 75/120/34 74/118/34
f 22/119/34 24/121/34 76/122/34 75/120/34
f 24/121/34 26/123/34 77/124/34 76/122/34
f 26/123/34 28/125/34 78/126/34 77/124/34
f 28/125/34 30/127/34 79/128/34 78/126/34
f 30/127/34 32/129/34 80/130/34 79/128/34
f 32/129/34 34/131/34 81/132/34 80/130/34
f 34/131/34 36/133/34 82/134/34 81/132/34
f 36/133/34 38/135/34 83/136/34 82/134/34
f 38/135/34 40/137/34 84/138/34 83/136/34
f 40/137/34 42/139/34 85/140/34 84/138/34
f 42/139/34 44/141/34 86/142/34 85/140/34
f 44/141/34 46/143/34 87/144/34 86/142/34
f 46/143/34 48/145/34 88/146/34 87/144/34
f 48/145/34 50/147/34 89/148/34 88/146/34
f 50/147/34 52/149/34 90/150/34 89/148/34
f 52/149/34 54/151/34 91/152/34 90/150/34
f 54/151/34 56/153/34 92/154/34 91/152/34
f 56/153/34 58/155/34 93/156/34 92/154/34
f 58/155/34 60/157/34 94/158/34 93/156/34
f 60/157/34 62/159/34 95/160/34 94/158/34
f 62/159/34 64/161/34 96/162/34 95/160/34
f 64/161/34 2/64/34 66/102/34 96/162/34
f 58/155/12 56/153/12 124/153/12 125/155/12
f 32/129/31 30/127/31 111/127/31 112/129/31
f 6/103/18 4/63/18 97/63/18 99/103/18
f 60/157/13 58/155/13 125/155/13 126/157/13
f 34/131/32 32/129/32 112/129/32 113/131/32
f 8/105/19 6/103/19 99/103/19 100/105/19
f 62/159/14 60/157/14 126/157/14 127/159/14
f 36/133/1 34/131/1 113/131/1 114/133/1
f 10/107/20 8/105/20 100/105/20 101/107/20
f 64/161/15 62/159/15 127/159/15 128/161/15
f 38/135/2 36/133/2 114/133/2 115/135/2
f 12/109/21 10/107/21 101/107/21 102/109/21
f 2/64/16 64/161/16 128/161/16 98/64/16
f 40/137/3 38/135/3 115/135/3 116/137/3
f 14/111/22 12/109/22 102/109/22 103/111/22
f 42/139/4 40/137/4 116/137/4 117/139/4
f 16/113/23 14/111/23 103/111/23 104/113/23
f 44/141/5 42/139/5 117/139/5 118/141/5
f 18/115/24 16/113/24 104/113/24 105/115/24
f 46/143/6 44/141/6 118/141/6 119/143/6
f 20/117/25 18/115/25 105/115/25 106/117/25
f 48/145/7 46/143/7 119/143/7 120/145/7
f 22/119/26 20/117/26 106/117/26 107/119/26
f 50/147/8 48/145/8 120/145/8 121/147/8
f 24/121/27 22/119/27 107/119/27 108/121/27
f 52/149/9 50/147/9 121/147/9 122/149/9
f 26/123/28 24/121/28 108/121/28 109/123/28
f 54/151/10 52/149/10 122/149/10 123/151/10
f 28/125/29 26/123/29 109/123/29 110/125/29
f 56/153/11 54/151/11 123/151/11 124/153/11
f 30/127/30 28/125/30 110/125/30 111/127/30
