# Blender 4.5.3 LTS
# www.blender.org
mtllib LiensoCuadrado.mtl
o Cube.002
v -0.703373 -0.714062 -0.038332
v -0.663385 -0.673466 0.038332
v -0.703373 0.714062 -0.038332
v -0.663385 0.673466 0.038332
v 0.703373 -0.714062 -0.038332
v 0.663385 -0.673466 0.038332
v 0.703373 0.714062 -0.038332
v 0.663385 0.673466 0.038332
v -0.703373 -0.714062 0.038332
v -0.703373 0.714062 0.038332
v 0.703373 0.714062 0.038332
v 0.703373 -0.714062 0.038332
v -0.663385 -0.673466 0.030283
v -0.663385 0.673466 0.030283
v 0.663385 0.673466 0.030283
v 0.663385 -0.673466 0.030283
vn -1.0000 -0.0000 -0.0000
vn -0.0000 1.0000 -0.0000
vn 1.0000 -0.0000 -0.0000
vn -0.0000 -1.0000 -0.0000
vn -0.0000 -0.0000 -1.0000
vn -0.0000 -0.0000 1.0000
vt 0.375000 0.000000
vt 0.625000 0.000000
vt 0.625000 0.250000
vt 0.375000 0.250000
vt 0.625000 0.500000
vt 0.375000 0.500000
vt 0.625000 0.750000
vt 0.375000 0.750000
vt 0.625000 1.000000
vt 0.375000 1.000000
vt 0.125000 0.500000
vt 0.125000 0.750000
vt 0.632106 0.742893
vt 0.632106 0.507106
vt 0.867894 0.742894
vt 0.867894 0.507106
vt 0.875000 0.500000
vt 0.875000 0.750000
vt 0.011359 -0.002145
vt 0.995171 -0.002145
vt 0.995171 0.981667
vt 0.011359 0.981666
s 0
usemtl PinturaCuadrada
f 15/19/6 14/20/6 13/21/6 16/22/6
f 4/16/3 2/15/3 13/15/3 14/16/3
f 8/14/4 4/16/4 14/16/4 15/14/4
usemtl BaseBlanca
f 1/1/1 9/2/1 10/3/1 3/4/1
f 3/4/2 10/3/2 11/5/2 7/6/2
f 7/6/3 11/5/3 12/7/3 5/8/3
f 5/8/4 12/7/4 9/9/4 1/10/4
f 3/11/5 7/6/5 5/8/5 1/12/5
f 6/13/1 8/14/1 15/14/1 16/13/1
f 2/15/6 4/16/6 10/17/6 9/18/6
f 4/16/6 8/14/6 11/5/6 10/17/6
f 8/14/6 6/13/6 12/7/6 11/5/6
f 6/13/6 2/15/6 9/18/6 12/7/6
f 2/15/2 6/13/2 16/13/2 13/15/2
