# Blender 4.5.3 LTS
# www.blender.org
mtllib Pedestal.mtl
o Cube.004
v -0.300000 -0.003144 0.300000
v -0.238613 1.851238 0.238613
v -0.300000 -0.003144 -0.300000
v -0.238613 1.851238 -0.238613
v 0.300000 -0.003144 0.300000
v 0.238613 1.851238 0.238613
v 0.300000 -0.003144 -0.300000
v 0.238613 1.851238 -0.238613
v -0.300000 1.851238 0.300000
v -0.300000 1.851238 -0.300000
v 0.300000 1.851238 -0.300000
v 0.300000 1.851238 0.300000
v -0.238613 1.898903 0.238613
v -0.238613 1.898903 -0.238613
v 0.238613 1.898903 -0.238613
v 0.238613 1.898903 0.238613
v -0.260371 1.855222 0.261657
v -0.282195 2.421699 0.283480
v -0.260371 1.855222 -0.261173
v -0.282195 2.421699 -0.282997
v 0.262459 1.855222 0.261657
v 0.284282 2.421699 0.283480
v 0.262459 1.855222 -0.261173
v 0.284282 2.421699 -0.282997
v -0.282195 1.855222 -0.282997
v -0.282195 1.855222 0.283480
v 0.284282 1.855222 -0.282997
v 0.284282 1.855222 0.283480
v -0.260371 2.397303 -0.261173
v -0.260371 2.397303 0.261657
v 0.262459 2.397303 -0.261173
v 0.262459 2.397303 0.261657
v 0.089099 2.070426 0.557659
v 0.089099 2.015357 0.557659
v 0.144168 2.015357 0.557659
v 0.144168 2.070426 0.557659
v 0.089099 2.015357 0.557659
v 0.089099 2.070426 0.557659
v 0.144168 2.070426 0.557659
v 0.144168 2.015357 0.557659
vn -1.0000 -0.0000 -0.0000
vn -0.0000 -0.0000 -1.0000
vn 1.0000 -0.0000 -0.0000
vn -0.0000 -0.0000 1.0000
vn -0.0000 -1.0000 -0.0000
vn -0.0000 1.0000 -0.0000
vt 0.375000 0.000000
vt 0.625000 0.000000
vt 0.625000 0.250000
vt 0.375000 0.250000
vt 0.625000 0.500000
vt 0.375000 0.500000
vt 0.625000 0.750000
vt 0.375000 0.750000
vt 0.625000 1.000000
vt 0.375000 1.000000
vt 0.125000 0.500000
vt 0.125000 0.750000
vt 0.650578 0.525578
vt 0.849422 0.525578
vt 0.849422 0.724422
vt 0.875000 0.500000
vt 0.875000 0.750000
vt 0.650578 0.724422
vt 0.365369 0.509631
vt 0.365369 0.740369
vt 0.134631 0.509631
vt 0.134631 0.740369
s 0
usemtl Negro
f 1/1/1 9/2/1 10/3/1 3/4/1
f 3/4/2 10/3/2 11/5/2 7/6/2
f 7/6/3 11/5/3 12/7/3 5/8/3
f 5/8/4 12/7/4 9/9/4 1/10/4
f 3/11/5 7/6/5 5/8/5 1/12/5
f 8/13/2 4/14/2 14/14/2 15/13/2
f 2/15/6 4/14/6 10/16/6 9/17/6
f 4/14/6 8/13/6 11/5/6 10/16/6
f 8/13/6 6/18/6 12/7/6 11/5/6
f 6/18/6 2/15/6 9/17/6 12/7/6
f 15/13/6 14/14/6 13/15/6 16/18/6
f 6/18/3 8/13/3 15/13/3 16/18/3
f 4/14/1 2/15/1 13/15/1 14/14/1
f 2/15/4 6/18/4 16/18/4 13/15/4
f 19/21/5 17/22/5 26/12/5 25/11/5
f 23/19/5 19/21/5 25/11/5 27/6/5
f 21/20/5 23/19/5 27/6/5 28/8/5
f 17/22/5 21/20/5 28/8/5 26/12/5
usemtl Vidrio
f 26/1/1 18/2/1 20/3/1 25/4/1
f 25/4/2 20/3/2 24/5/2 27/6/2
f 27/6/3 24/5/3 22/7/3 28/8/3
f 28/8/4 22/7/4 18/9/4 26/10/4
f 23/19/1 21/20/1 32/20/1 31/19/1
f 24/5/6 20/16/6 18/17/6 22/7/6
f 29/21/5 31/19/5 32/20/5 30/22/5
f 17/22/3 19/21/3 29/21/3 30/22/3
f 21/20/2 17/22/2 30/22/2 32/20/2
f 19/21/4 23/19/4 31/19/4 29/21/4
l 37 34
l 33 38
l 39 36
l 35 40
